<svg width="3136" height="2537" viewBox="0 0 3136 2537" fill="none" xmlns="http://www.w3.org/2000/svg">
<path d="M325.861 575.434L339.233 325.824L602.214 330.282L704.732 89.5871L958.799 196.562L1168.29 36.0991L1351.04 196.562L1622.94 102.959L1725.46 325.824L1948.32 374.855L1966.15 606.635L2189.02 740.354L2108.79 940.933L2255.88 1092.48L2144.44 1226.2L660.159 2180.07L539.812 1961.66L308.032 1957.2L303.574 1680.85L107.453 1564.96L178.77 1342.09L36.1357 1172.71L156.483 932.019L71.7938 709.153L325.861 575.434Z" fill="#72589B"/>
<path d="M704.732 89.5869L896.397 548.69L1012.29 459.544L958.799 196.562L704.732 89.5869Z" fill="#5E57B1"/>
<path d="M339.232 325.824L695.817 660.123L749.305 562.062L602.213 330.282L339.232 325.824Z" fill="#5E57B1"/>
<path d="M71.7939 709.153L526.44 838.415L568.881 754.114L325.861 575.434L71.7939 709.153Z" fill="#5E57B1"/>
<path d="M36.1357 1172.71L486.324 1150.43L455.123 985.505L156.483 932.019L36.1357 1172.71Z" fill="#5E57B1"/>
<path d="M107.453 1564.96L468.495 1417.87L446.208 1319.8L178.77 1342.09L107.453 1564.96Z" fill="#5E57B1"/>
<path d="M308.032 1957.2L611.129 1658.56L557.641 1582.79L303.574 1680.85L308.032 1957.2Z" fill="#5E57B1"/>
<path d="M660.158 2180.07L762.677 1774.45L686.902 1729.88L539.812 1961.66L660.158 2180.07Z" fill="#5E57B1"/>
<path d="M1168.29 36.0991L1154.92 432.8L1293.1 450.629L1351.04 196.562L1168.29 36.0991Z" fill="#5E57B1"/>
<path d="M1622.94 102.959L1435.73 513.031L1560.54 562.062L1725.46 325.824L1622.94 102.959Z" fill="#5E57B1"/>
<path d="M1948.32 374.855L1663.05 651.208L1768.29 734.347L1966.15 606.635L1948.32 374.855Z" fill="#5E57B1"/>
<path d="M2183.4 741.323L1801.23 878.531L1823.52 976.592L2113.63 940.158L2183.4 741.323Z" fill="#5E57B1"/>
<path d="M660.16 2198.13C658.676 2198.13 657.186 2197.95 655.726 2197.57C650.877 2196.35 646.751 2193.17 644.339 2188.78L529.031 1979.52L307.683 1975.26C297.956 1975.07 290.124 1967.22 289.968 1957.49L285.676 1691.25L98.2589 1580.51C91.0029 1576.22 87.6729 1567.48 90.2459 1559.45L158.522 1346.09L22.3159 1184.35C17.6719 1178.83 16.7539 1171.08 19.9769 1164.63L136.779 931.027L54.9089 715.568C51.6669 707.033 55.2999 697.421 63.3809 693.168L308.366 564.225L321.193 324.857C321.706 315.257 329.645 307.76 339.225 307.76C339.328 307.76 339.43 307.762 339.538 307.762L590.358 312.015L688.107 82.5079C692.003 73.3599 702.56 69.0699 711.74 72.9379L956.139 175.843L1157.31 21.7559C1164.15 16.5239 1173.73 16.8369 1180.21 22.5229L1355.08 176.068L1617.06 85.8779C1625.82 82.8579 1635.46 86.9769 1639.35 95.4089L1738.11 310.114L1952.2 357.214C1959.98 358.925 1965.72 365.529 1966.33 373.471L1983.44 595.947L2198.31 724.866C2205.91 729.426 2209.08 738.831 2205.79 747.063L2129.9 936.76L2268.84 1079.9C2275.27 1086.53 2275.66 1096.95 2269.75 1104.05L2158.31 1237.77C2157.14 1239.18 2155.75 1240.4 2154.2 1241.4L669.922 2195.26C666.986 2197.15 663.593 2198.13 660.16 2198.13ZM325.81 1939.47L540.161 1943.6C546.621 1943.72 552.519 1947.28 555.635 1952.94L666.656 2154.42L2132.34 1212.5L2231.6 1093.4L2095.82 953.514C2090.86 948.399 2089.37 940.843 2092.01 934.224L2166.53 747.93L1956.86 622.124C1951.84 619.114 1948.59 613.857 1948.14 608.02L1931.34 389.614L1721.58 343.467C1716.05 342.251 1711.41 338.516 1709.05 333.374L1613.36 125.361L1356.92 213.642C1350.8 215.749 1344 214.411 1339.13 210.136L1167.52 59.4499L969.78 210.903C964.633 214.851 957.758 215.727 951.787 213.21L714.302 113.215L618.838 337.36C615.952 344.125 609.209 348.295 601.909 348.344L356.338 344.181L343.897 576.4C343.555 582.75 339.903 588.456 334.273 591.417L94.3659 717.687L173.37 925.602C175.162 930.324 174.898 935.58 172.642 940.097L57.6079 1170.16L192.588 1330.45C196.587 1335.21 197.866 1341.68 195.972 1347.59L129.048 1556.74L312.764 1665.29C318.174 1668.49 321.533 1674.27 321.636 1680.55L325.81 1939.47Z" fill="#252627"/>
<path d="M1159.38 1930.46C1582.79 1930.46 1926.04 1587.21 1926.04 1163.8C1926.04 740.386 1582.79 397.141 1159.38 397.141C735.965 397.141 392.721 740.386 392.721 1163.8C392.721 1587.21 735.965 1930.46 1159.38 1930.46Z" fill="#875985"/>
<g opacity="0.6">
<path d="M1905.2 985.706C1824.9 648.186 1521.47 397.142 1159.38 397.142C735.966 397.142 392.721 740.386 392.721 1163.8C392.721 1242.88 404.703 1319.15 426.934 1390.92C413.336 1333.77 406.093 1274.15 406.093 1212.83C406.093 881.615 616.135 599.47 910.281 492.294C909.809 495.053 909.663 497.83 909.86 500.615C913.011 545.147 1002.49 575.097 1109.72 567.51C1216.96 559.923 1301.33 517.672 1298.18 473.14C1297.74 466.925 1295.56 461.008 1291.95 455.423C1582.98 500.861 1819.79 709.986 1905.2 985.706Z" fill="#0F79AF"/>
</g>
<path d="M1775.48 707.498C1789.37 765.219 1796.77 825.463 1796.77 887.445C1796.77 1310.86 1453.53 1654.1 1030.12 1654.1C777.648 1654.1 553.706 1532.05 414.014 1343.74C494.984 1680.33 797.948 1930.46 1159.38 1930.46C1582.79 1930.46 1926.04 1587.21 1926.04 1163.8C1926.04 992.854 1870.07 834.996 1775.48 707.498Z" fill="#72589B"/>
<path d="M1159.38 1948.52C726.679 1948.52 374.657 1596.5 374.657 1163.8C374.657 731.101 726.679 379.077 1159.38 379.077C1592.07 379.077 1944.1 731.101 1944.1 1163.8C1944.1 1596.5 1592.07 1948.52 1159.38 1948.52ZM1159.38 415.205C746.601 415.205 410.78 751.023 410.78 1163.8C410.78 1576.58 746.6 1912.4 1159.38 1912.4C1572.15 1912.4 1907.97 1576.58 1907.97 1163.8C1907.97 751.023 1572.15 415.205 1159.38 415.205Z" fill="#252627"/>
<path d="M1168.32 1266.3C1166.88 1266.3 1165.43 1266.27 1163.98 1266.21C1131.32 1264.77 1104.77 1247.49 1089.21 1217.57C1085.48 1210.41 1088.27 1201.59 1095.43 1197.87C1102.58 1194.15 1111.4 1196.93 1115.13 1204.09C1128.64 1230.07 1149.85 1236.34 1165.27 1237.02C1192.71 1238.24 1221.76 1223.01 1236.41 1200.03C1244.71 1187.02 1251.76 1166.05 1238.25 1140.07C1234.53 1132.91 1237.31 1124.09 1244.47 1120.36C1251.62 1116.64 1260.45 1119.43 1264.17 1126.58C1279.73 1156.51 1278.62 1188.17 1261.05 1215.74C1241.51 1246.37 1204.68 1266.3 1168.32 1266.3Z" fill="#252627"/>
<path d="M965.9 1470.98C999.899 1453.3 1018.78 1422.28 1008.08 1401.7C997.38 1381.12 961.143 1378.78 927.144 1396.46C893.145 1414.14 874.26 1445.15 884.962 1465.73C895.664 1486.31 931.901 1488.66 965.9 1470.98Z" fill="#FF8CC3"/>
<path d="M1539.37 1172.74C1573.37 1155.06 1592.25 1124.04 1581.55 1103.47C1570.85 1082.89 1534.61 1080.54 1500.61 1098.22C1466.62 1115.9 1447.73 1146.92 1458.43 1167.5C1469.13 1188.07 1505.37 1190.42 1539.37 1172.74Z" fill="#FF8CC3"/>
<path d="M939.432 1279.81C985.717 1255.7 1000.67 1192.83 972.835 1139.38C944.998 1085.93 884.91 1062.14 838.625 1086.25C792.34 1110.35 777.385 1173.22 805.222 1226.67C833.059 1280.12 893.147 1303.91 939.432 1279.81Z" fill="#252627"/>
<path d="M915.258 1177.77C930.349 1169.91 934.517 1148.05 924.567 1128.95C914.618 1109.84 894.319 1100.73 879.228 1108.59C864.137 1116.45 859.969 1138.31 869.918 1157.41C879.868 1176.51 900.167 1185.63 915.258 1177.77Z" fill="#0F79AF"/>
<g opacity="0.2">
<path d="M886.923 1255.31C895.281 1250.96 896.598 1236.95 889.864 1224.02C883.131 1211.09 870.897 1204.14 862.539 1208.49C854.182 1212.85 852.865 1226.86 859.598 1239.79C866.331 1252.71 878.565 1259.67 886.923 1255.31Z" fill="#0F79AF"/>
</g>
<path d="M1394.43 1043.43C1440.74 1019.38 1455.78 956.525 1428.01 903.039C1400.24 849.552 1340.18 825.687 1293.86 849.735C1247.54 873.784 1232.51 936.638 1260.28 990.124C1288.05 1043.61 1348.11 1067.48 1394.43 1043.43Z" fill="#252627"/>
<path d="M1324.78 965.047C1339.88 957.207 1344.07 935.353 1334.15 916.236C1324.22 897.119 1303.93 887.978 1288.83 895.819C1273.73 903.66 1269.54 925.513 1279.46 944.63C1289.39 963.747 1309.68 972.888 1324.78 965.047Z" fill="#0F79AF"/>
<g opacity="0.2">
<path d="M1404.53 986.386C1412.9 982.044 1414.23 968.035 1407.51 955.098C1400.79 942.16 1388.57 935.192 1380.21 939.535C1371.84 943.877 1370.51 957.885 1377.23 970.823C1383.94 983.761 1396.17 990.728 1404.53 986.386Z" fill="#0F79AF"/>
</g>
<path d="M1296.59 2444.79C1502.63 2513.42 1742.13 2499.57 1935.69 2419.22C2143.69 2520.79 2358.89 2519.32 2578.43 2455.74C3045.89 2612.78 3312.48 1970.03 2885.2 1736.31C2832.03 1448.32 2625.91 1309.03 2373.92 1341.9C2202.28 947.483 1592.4 1013.22 1475.54 1367.46C1244.93 1299.57 1019.05 1473.37 1011.74 1707.09C620.981 1805.69 591.766 2565.3 1296.59 2444.79Z" fill="#0F79AF"/>
<g opacity="0.3">
<path d="M1013.02 1725.95C1032.36 1509.11 1240.34 1350.56 1457.49 1402.8C1467.7 1405.26 1478.05 1399.84 1481.84 1390.04C1610.81 1056.34 2187.69 996.028 2366.14 1365.1C2370.96 1375.08 2381.41 1381.03 2392.44 1379.95C2635.96 1356.14 2833.34 1495.58 2885.2 1776.48C3027.87 1854.52 3093.16 1978.16 3099.46 2102.41C3106.35 1965.2 3043.26 1822.77 2885.2 1736.31C2832.03 1448.32 2625.91 1309.03 2373.92 1341.89C2202.28 947.483 1592.4 1013.22 1475.54 1367.46C1244.93 1299.57 1019.05 1473.37 1011.74 1707.09C832.836 1752.24 729.74 1935.94 738.156 2110.29C745.643 1955.59 838.226 1802.43 991.19 1753.16C1003.25 1749.27 1011.9 1738.57 1013.02 1725.95Z" fill="#0F79AF"/>
</g>
<path d="M3095.4 2022.46C3064.55 2226.42 2880.88 2404.85 2629.37 2349.41C2660.54 2337.92 2684.97 2316.89 2696.73 2291.05C2700.67 2282.39 2709.42 2276.82 2718.89 2277.78C2724.32 2278.34 2729.85 2278.62 2735.47 2278.62C2807.07 2278.62 2865.11 2232.59 2865.11 2175.81C2865.11 2173.39 2865.01 2170.99 2864.8 2168.62C2864.17 2161.54 2854.91 2159.04 2851.07 2165.02C2829.67 2198.43 2785.95 2221.32 2735.47 2221.32C2684.85 2221.32 2641.03 2198.3 2619.69 2164.75C2615.93 2158.84 2606.81 2161.32 2606.17 2168.29C2605.94 2170.77 2605.82 2173.28 2605.82 2175.81C2605.82 2214.6 2632.93 2248.37 2672.93 2265.88C2649.16 2287.75 2614.05 2301.66 2574.78 2301.66C2525.15 2301.66 2482.06 2279.54 2460.28 2247.05C2455.95 2240.59 2445.8 2243.21 2445.3 2250.98C2445.19 2252.69 2445.14 2254.41 2445.14 2256.15C2445.14 2289.74 2465.46 2319.55 2496.87 2338.3C2504.62 2342.93 2502.85 2354.64 2494.02 2356.54C2329.94 2391.8 2168.52 2389.04 2010.97 2330.89C2049.97 2312.6 2076.29 2278.07 2076.29 2238.45C2076.29 2235.76 2076.17 2233.09 2075.92 2230.44C2075.28 2223.47 2066.14 2221.05 2062.49 2227.02C2041.25 2261.71 1997.63 2285.51 1947.24 2285.51C1920.21 2285.51 1895.17 2278.59 1874.44 2266.88C1926.75 2246.55 1963.08 2201.92 1963.08 2150.1C1963.08 2144.32 1962.62 2138.64 1961.73 2133.07C1960.77 2127.01 1952.59 2125.72 1949.71 2131.13C1925.9 2175.85 1872.73 2206.99 1810.92 2206.99C1750.26 2206.99 1697.93 2177 1673.5 2133.62C1669.96 2127.35 1660.58 2129.05 1659.66 2136.19C1659.07 2140.76 1658.77 2145.4 1658.77 2150.1C1658.77 2221.08 1726.89 2278.62 1810.92 2278.62C1811.26 2278.62 1811.61 2278.62 1811.95 2278.62C1821.21 2278.56 1829.71 2283.19 1834.96 2290.82C1843.61 2303.4 1855.28 2314.37 1869.17 2323.08C1741.3 2364.24 1598.73 2378.25 1461.29 2361.13C1452.56 2360.04 1450.62 2348.42 1458.48 2344.46C1502.9 2322.11 1532.15 2284.13 1532.15 2241C1532.15 2235.59 1531.68 2230.26 1530.77 2225.03C1529.64 2218.48 1521.01 2216.84 1517.6 2222.54C1491.62 2265.92 1433.52 2296.14 1365.98 2296.14C1299.19 2296.14 1241.64 2266.59 1215.25 2223.98C1211.45 2217.84 1202.02 2219.56 1200.92 2226.69C1200.2 2231.39 1199.82 2236.16 1199.82 2241C1199.82 2276.37 1219.52 2308.27 1251.1 2330.94C924.854 2370.95 769.332 2211.93 742.065 2029.67C708.524 2262.14 864.805 2518.62 1296.6 2444.79C1502.63 2513.42 1742.14 2499.57 1935.69 2419.22C2143.69 2520.79 2358.89 2519.32 2578.44 2455.74C2906.49 2565.95 3135.61 2282.25 3095.4 2022.46Z" fill="#BDE1E9"/>
<path d="M2287.02 2518.25C2162.61 2518.26 2046.05 2491.88 1935.09 2438.99C1734.6 2520.01 1496.39 2529.13 1295.19 2463.34C1133.26 2490.33 999.594 2473.79 897.885 2414.17C810.141 2362.74 749.975 2278.37 728.466 2176.61C688.91 1989.44 786.449 1754.01 994.335 1693.12C1001.84 1578.52 1059.25 1474.7 1153.27 1406.64C1244.01 1340.94 1356.41 1319.11 1464.11 1345.66C1495.35 1263.32 1554.02 1192.89 1634.69 1141.18C1713.79 1090.47 1812.15 1060.02 1911.64 1055.45C2122.89 1045.72 2302.86 1147.72 2384.93 1322.4C2510.65 1308.83 2624.5 1337.04 2714.9 1404.29C2809.6 1474.74 2873.96 1585.38 2901.36 1724.64C3128.18 1853.47 3154.23 2089.08 3081.59 2255.17C3041.82 2346.08 2973.39 2418.83 2888.91 2460C2795.78 2505.39 2688.41 2510.42 2578.07 2474.65C2476.16 2503.69 2379.41 2518.25 2287.02 2518.25ZM1935.69 2401.16C1938.4 2401.16 1941.12 2401.77 1943.61 2403C2132 2494.98 2338.01 2506.55 2573.41 2438.4C2576.94 2437.37 2580.7 2437.45 2584.18 2438.62C2811.69 2515.06 2981.31 2394.28 3048.49 2240.69C3115.55 2087.37 3090.34 1869.1 2876.53 1752.16C2871.76 1749.54 2868.42 1744.93 2867.44 1739.59C2818.08 1472.25 2629.94 1326.72 2376.26 1359.81C2368.33 1360.86 2360.58 1356.49 2357.36 1349.1C2269.92 1148.18 2070.68 1084.33 1913.3 1091.54C1714.27 1100.68 1545.24 1213.84 1492.7 1373.12C1489.64 1382.38 1479.82 1387.54 1470.44 1384.79C1368.61 1354.81 1260.72 1373.45 1174.45 1435.9C1085.92 1499.99 1033.19 1599.05 1029.8 1707.66C1029.55 1715.72 1023.98 1722.64 1016.16 1724.61C819.508 1774.23 726.915 1994.52 763.814 2169.14C800.66 2343.48 942.808 2439.56 1153.64 2439.57C1197.43 2439.57 1244.16 2435.43 1293.55 2426.99C1296.49 2426.47 1299.49 2426.71 1302.31 2427.65C1498.92 2493.14 1733.1 2483.76 1928.77 2402.54C1930.98 2401.62 1933.34 2401.16 1935.69 2401.16Z" fill="#252627"/>
<path d="M1385.93 2487.46C1311.57 2480.04 1235.89 2440.89 1201.84 2371.95C1198.24 2363.65 1192.89 2351.24 1190.69 2342.53C1227.76 2389.58 1278.03 2421.12 1335.01 2437.24C1353.81 2443 1373.17 2447.28 1392.3 2452C1413.47 2458.01 1407.77 2489.23 1385.93 2487.46Z" fill="#252627"/>
<path d="M1989.96 2462.78C1935.85 2445.4 1885.27 2406.56 1862.65 2353.49C1885.22 2370.65 1907.56 2384.97 1931.07 2396.84C1951.22 2407.41 1981.55 2419.81 2002.7 2428.97C2023.54 2438.41 2011.74 2469.46 1989.96 2462.78Z" fill="#252627"/>
<path d="M2524.97 2451.4C2551.54 2444.79 2577.7 2437.07 2602.48 2425.23C2627.91 2412.83 2651.14 2397.36 2673.38 2379.05C2658.65 2423.3 2619.21 2455.04 2577.59 2473.2C2563 2479.41 2547.87 2484.18 2532.36 2486.67C2509.59 2489.87 2502.91 2457.59 2524.97 2451.4Z" fill="#252627"/>
<path d="M2892.08 1705.27C2898.73 1746.95 2896.5 1789.89 2888.85 1831.26C2882.41 1800.73 2876.04 1770.51 2868.85 1740.36C2866.77 1730.11 2864.5 1719.93 2863.21 1709.52C2861.2 1690.69 2888.56 1686.67 2892.08 1705.27Z" fill="#252627"/>
<path d="M1919.26 1906.6C1870.25 1906.6 1820.65 1875.08 1820.65 1814.83C1820.65 1806.76 1827.19 1800.22 1835.26 1800.22C1843.32 1800.22 1849.87 1806.76 1849.87 1814.83C1849.87 1857.81 1885.83 1877.39 1919.26 1877.39C1952.68 1877.39 1988.64 1857.81 1988.64 1814.83C1988.64 1806.76 1995.19 1800.22 2003.25 1800.22C2011.32 1800.22 2017.86 1806.76 2017.86 1814.83C2017.86 1875.07 1968.26 1906.6 1919.26 1906.6Z" fill="#252627"/>
<path d="M1594.23 1982.82C1632.55 1982.82 1663.62 1964.01 1663.62 1940.82C1663.62 1917.62 1632.55 1898.82 1594.23 1898.82C1555.91 1898.82 1524.84 1917.62 1524.84 1940.82C1524.84 1964.01 1555.91 1982.82 1594.23 1982.82Z" fill="#FF8CC3"/>
<path d="M2240.63 1982.82C2278.95 1982.82 2310.01 1964.01 2310.01 1940.82C2310.01 1917.62 2278.95 1898.82 2240.63 1898.82C2202.31 1898.82 2171.24 1917.62 2171.24 1940.82C2171.24 1964.01 2202.31 1982.82 2240.63 1982.82Z" fill="#FF8CC3"/>
<path d="M1658.94 1801.06C1711.12 1801.06 1753.43 1752.21 1753.43 1691.94C1753.43 1631.68 1711.12 1582.82 1658.94 1582.82C1606.75 1582.82 1564.44 1631.68 1564.44 1691.94C1564.44 1752.21 1606.75 1801.06 1658.94 1801.06Z" fill="#252627"/>
<path d="M1684.61 1699.38C1701.62 1699.38 1715.42 1681.92 1715.42 1660.38C1715.42 1638.84 1701.62 1621.38 1684.61 1621.38C1667.59 1621.38 1653.8 1638.84 1653.8 1660.38C1653.8 1681.92 1667.59 1699.38 1684.61 1699.38Z" fill="#0F79AF"/>
<g opacity="0.2">
<path d="M1623.7 1755.11C1633.13 1755.11 1640.76 1743.29 1640.76 1728.71C1640.76 1714.13 1633.13 1702.32 1623.7 1702.32C1614.28 1702.32 1606.64 1714.13 1606.64 1728.71C1606.64 1743.29 1614.28 1755.11 1623.7 1755.11Z" fill="#0F79AF"/>
</g>
<path d="M2171.94 1801.06C2224.13 1801.06 2266.43 1752.21 2266.43 1691.94C2266.43 1631.68 2224.13 1582.82 2171.94 1582.82C2119.75 1582.82 2077.44 1631.68 2077.44 1691.94C2077.44 1752.21 2119.75 1801.06 2171.94 1801.06Z" fill="#252627"/>
<path d="M2146.27 1699.38C2163.28 1699.38 2177.08 1681.92 2177.08 1660.38C2177.08 1638.84 2163.28 1621.38 2146.27 1621.38C2129.25 1621.38 2115.46 1638.84 2115.46 1660.38C2115.46 1681.92 2129.25 1699.38 2146.27 1699.38Z" fill="#0F79AF"/>
<g opacity="0.2">
<path d="M2207.17 1755.11C2216.6 1755.11 2224.24 1743.29 2224.24 1728.71C2224.24 1714.13 2216.6 1702.32 2207.17 1702.32C2197.75 1702.32 2190.11 1714.13 2190.11 1728.71C2190.11 1743.29 2197.75 1755.11 2207.17 1755.11Z" fill="#0F79AF"/>
</g>
<path d="M2287.02 2536.32C2182.1 2536.32 2080.37 2517.38 1984.61 2480.03C1971.58 2475.83 1958.9 2470.53 1946.56 2464.16C1942.53 2462.36 1938.51 2460.53 1934.5 2458.67C1764.25 2525.67 1563.98 2542.71 1383.52 2505.37C1354.58 2502.39 1326.75 2495.19 1300.47 2483.94L1298.67 2483.38C1297.05 2482.88 1295.44 2482.38 1293.83 2481.88C1129.51 2508.56 993.264 2491.02 888.748 2429.75C799.119 2377.22 736.893 2292.03 712.767 2189.2L679.686 2210.46C671.332 2215.83 660.921 2217.55 651.273 2215.08C641.625 2212.64 633.324 2206.23 628.509 2197.5L518.245 1997.38L307.337 1993.32C287.786 1992.95 272.22 1977.34 271.907 1957.78L267.776 1701.66L89.07 1596.06C74.456 1587.41 67.869 1570.09 73.045 1553.94L138.279 1350.09L8.49403 1195.98C-0.797975 1184.94 -2.63395 1169.47 3.81605 1156.56L117.078 930.036L38.0201 721.984C31.5451 704.936 38.8261 685.675 54.9631 677.184L290.876 553.014L303.156 323.888C304.181 304.716 320.021 289.694 339.225 289.694C339.328 289.694 339.743 289.699 339.845 289.699L578.497 293.747L671.49 75.432C679.263 57.18 700.46 48.586 718.751 56.294L953.482 155.127L1146.31 7.41698C1159.96 -3.02003 1179.22 -2.383 1192.13 8.955L1359.11 155.576L1611.18 68.799C1628.77 62.739 1647.95 70.928 1655.75 87.849L1750.76 294.402L1956.08 339.571C1971.75 343.018 1983.1 356.085 1984.33 372.083L2000.74 585.257L2207.6 709.378C2222.88 718.546 2229.17 737.215 2222.56 753.768L2151.02 932.589L2281.8 1067.32C2294.7 1080.62 2295.48 1101.37 2283.62 1115.61L2262.07 1141.46C2318.67 1184.86 2363.53 1239.16 2395.67 1303.2C2520.95 1292.36 2634.79 1322.18 2725.67 1389.8C2822.08 1461.52 2888.28 1573.18 2917.44 1713.07C3147.42 1848.35 3172.75 2091.8 3098.13 2262.4C3056.65 2357.24 2985.15 2433.19 2896.82 2476.24C2800.96 2522.94 2690.74 2528.88 2577.74 2493.5C2574.29 2494.46 2570.84 2495.41 2567.4 2496.35C2557.23 2499.78 2547.23 2502.38 2537.63 2504.06C2450.87 2525.46 2366.55 2536.32 2287.02 2536.32ZM1994.8 2445.36C1995.02 2445.41 1995.23 2445.47 1995.43 2445.53C1995.91 2445.68 1996.37 2445.83 1996.83 2446.01C2089.94 2482.47 2184.87 2500.2 2287.02 2500.2C2363.83 2500.19 2445.44 2489.64 2529.59 2468.83C2530.02 2468.72 2530.45 2468.64 2530.88 2468.56C2539.09 2467.16 2547.39 2465 2556.29 2461.97C2556.65 2461.84 2557.02 2461.73 2557.39 2461.63C2562.62 2460.21 2567.86 2458.77 2573.12 2457.27C2576.56 2456.29 2580.22 2456.36 2583.64 2457.46C2689.4 2491.75 2792.24 2487 2880.99 2443.76C2961.63 2404.47 3026.99 2334.91 3065.04 2247.93C3134.15 2089.93 3109.61 1863.7 2892.44 1740.35C2887.86 1737.75 2884.65 1733.28 2883.63 1728.12C2857.13 1593.4 2795.05 1486.43 2704.12 1418.78C2617.6 1354.41 2507.89 1327.32 2386.86 1340.35C2379.16 1341.14 2371.85 1337.05 2368.57 1330.08C2336.03 1260.81 2287.9 1203.39 2225.51 1159.41C2221.39 1156.5 2218.67 1152.01 2218.01 1147.01C2217.35 1142.01 2218.81 1136.96 2222.04 1133.08L2255.87 1092.48L2116.94 949.341C2111.98 944.226 2110.49 936.67 2113.13 930.051L2189.02 740.354L1974.15 611.433C1969.13 608.423 1965.89 603.166 1965.44 597.331L1948.32 374.853L1734.23 327.753C1728.7 326.537 1724.06 322.802 1721.7 317.66L1622.94 102.958L1360.96 193.148C1354.84 195.262 1348.04 193.922 1343.16 189.642L1168.29 36.098L967.128 190.185C961.977 194.128 955.116 195.009 949.13 192.492L704.731 89.587L606.972 319.091C604.135 325.761 597.587 330.077 590.361 330.077C590.253 330.077 590.151 330.074 590.048 330.074L339.232 325.821L326.405 565.189C326.063 571.539 322.411 577.245 316.781 580.206L71.7911 709.151L153.666 924.61C155.463 929.332 155.194 934.588 152.938 939.105L36.131 1172.71L172.342 1334.45C176.341 1339.2 177.62 1345.68 175.726 1351.59L107.45 1564.96L294.862 1675.7C300.272 1678.9 303.632 1684.67 303.734 1690.96L308.031 1957.2L529.374 1961.46C535.834 1961.58 541.732 1965.14 544.848 1970.8L660.156 2180.07L715.537 2144.48C720.659 2141.2 727.085 2140.7 732.637 2143.17C738.194 2145.64 742.134 2150.73 743.125 2156.73C744.053 2162.36 745.068 2167.79 746.143 2172.88C766.578 2269.6 823.716 2349.76 907.022 2398.59C1004.96 2455.99 1134.56 2471.78 1292.22 2445.53C1295.09 2445.04 1298.02 2445.27 1300.79 2446.17C1303.62 2447.1 1306.48 2447.98 1309.33 2448.86L1312.08 2449.71C1312.7 2449.9 1313.31 2450.13 1313.9 2450.38C1336.76 2460.27 1362.04 2466.85 1387.05 2469.42C1387.96 2469.47 1388.88 2469.59 1389.78 2469.77C1566.32 2506.53 1762.61 2489.21 1928.32 2422.24C1933.01 2420.34 1938.29 2420.51 1942.86 2422.68C1949.14 2425.67 1955.45 2428.56 1961.77 2431.38C1962.09 2431.53 1962.41 2431.68 1962.73 2431.85C1973.25 2437.31 1984.04 2441.86 1994.8 2445.36Z" fill="#252627"/>
</svg>
