<?xml version="1.0" encoding="utf-8"?>
<!-- Generator: Adobe Illustrator 27.5.0, SVG Export Plug-In . SVG Version: 6.00 Build 0)  -->
<svg version="1.1" id="Layer_1" xmlns="http://www.w3.org/2000/svg" xmlns:xlink="http://www.w3.org/1999/xlink" x="0px" y="0px"
	 viewBox="0 0 4000 4000" style="enable-background:new 0 0 4000 4000;" xml:space="preserve">
<g>
	<g>
		<rect style="fill:#E6BFFF;" width="4000" height="4000"/>
	</g>
	<g>
		<g>
			<g>
				<polygon style="fill:#FCAF27;" points="811.241,1269.335 824.613,1019.725 1087.594,1024.183 1190.112,783.488 
					1444.179,890.463 1653.673,730 1836.423,890.463 2108.319,796.86 2210.837,1019.725 2433.702,1068.756 2451.531,1300.536 
					2674.397,1434.255 2594.166,1634.834 2741.257,1786.383 2629.824,1920.102 1145.539,2873.967 1025.192,2655.559 
					793.412,2651.101 788.954,2374.748 592.833,2258.858 664.15,2035.992 521.516,1866.614 641.863,1625.92 557.174,1403.054 				
					"/>
			</g>
			<g>
				<polygon style="fill:#F98C28;" points="1190.112,783.488 1381.777,1242.591 1497.667,1153.445 1444.179,890.463 				"/>
			</g>
			<g>
				<polygon style="fill:#F98C28;" points="824.613,1019.725 1181.198,1354.024 1234.686,1255.963 1087.594,1024.183 				"/>
			</g>
			<g>
				<polygon style="fill:#F98C28;" points="557.174,1403.054 1011.82,1532.316 1054.261,1448.015 811.241,1269.335 				"/>
			</g>
			<g>
				<polygon style="fill:#F98C28;" points="521.516,1866.614 971.704,1844.328 940.503,1679.407 641.863,1625.92 				"/>
			</g>
			<g>
				<polygon style="fill:#F98C28;" points="592.833,2258.858 953.875,2111.767 931.588,2013.706 664.15,2035.992 				"/>
			</g>
			<g>
				<polygon style="fill:#F98C28;" points="793.412,2651.101 1096.509,2352.461 1043.021,2276.687 788.954,2374.748 				"/>
			</g>
			<g>
				<polygon style="fill:#F98C28;" points="1145.539,2873.967 1248.057,2468.352 1172.283,2423.778 1025.192,2655.559 				"/>
			</g>
			<g>
				<polygon style="fill:#F98C28;" points="1653.673,730 1640.301,1126.701 1778.478,1144.53 1836.423,890.463 				"/>
			</g>
			<g>
				<polygon style="fill:#F98C28;" points="2108.319,796.86 1921.111,1206.932 2045.916,1255.963 2210.837,1019.725 				"/>
			</g>
			<g>
				<polygon style="fill:#F98C28;" points="2433.702,1068.756 2148.434,1345.109 2253.666,1428.248 2451.531,1300.536 				"/>
			</g>
			<g>
				<polygon style="fill:#F98C28;" points="2668.777,1435.224 2286.611,1572.432 2308.898,1670.493 2599.01,1634.059 				"/>
			</g>
			<g>
				<path style="fill:#3B0372;" d="M1145.54,2892.028c-1.484,0-2.974-0.181-4.434-0.552c-4.849-1.226-8.975-4.409-11.387-8.794
					l-115.308-209.263l-221.348-4.258c-9.727-0.19-17.559-8.042-17.715-17.769l-4.292-266.24l-187.417-110.742
					c-7.256-4.287-10.586-13.027-8.013-21.055l68.276-213.364l-136.206-161.741c-4.644-5.515-5.562-13.264-2.339-19.714
					l116.802-233.608l-81.87-215.459c-3.242-8.535,0.391-18.147,8.472-22.4l244.985-128.943l12.827-239.368
					c0.513-9.6,8.452-17.097,18.032-17.097c0.103,0,0.205,0.002,0.313,0.002l250.82,4.253l97.749-229.507
					c3.896-9.148,14.453-13.438,23.633-9.57l244.399,102.905l201.167-154.087c6.846-5.232,16.426-4.919,22.905,0.767
					l174.868,153.545l261.978-90.19c8.76-3.02,18.408,1.099,22.29,9.531l98.765,214.705l214.092,47.1
					c7.778,1.711,13.516,8.315,14.126,16.257l17.114,222.476l214.863,128.919c7.603,4.56,10.771,13.965,7.48,22.197l-75.884,189.697
					l138.935,143.142c6.431,6.628,6.826,17.046,0.913,24.146l-111.436,133.718c-1.177,1.411-2.563,2.637-4.111,3.63
					l-1484.282,953.865C1152.366,2891.052,1148.973,2892.028,1145.54,2892.028z M811.19,2633.376l214.351,4.121
					c6.46,0.127,12.358,3.687,15.474,9.346l111.021,201.48l1465.688-941.917l99.253-119.101l-135.776-139.89
					c-4.961-5.115-6.455-12.671-3.808-19.29l74.521-186.294l-209.673-125.806c-5.019-3.01-8.271-8.267-8.716-14.104l-16.802-218.406
					l-209.766-46.147c-5.527-1.216-10.166-4.951-12.529-10.093l-95.688-208.013l-256.435,88.281
					c-6.123,2.107-12.92,0.769-17.798-3.506l-171.611-150.686L1455.16,904.804c-5.147,3.948-12.022,4.824-17.993,2.307
					l-237.485-99.995l-95.464,224.145c-2.886,6.765-9.629,10.935-16.929,10.984l-245.571-4.163l-12.441,232.219
					c-0.342,6.35-3.994,12.056-9.624,15.017l-239.907,126.27l79.004,207.915c1.792,4.722,1.528,9.978-0.728,14.495l-115.034,230.068
					l134.98,160.29c3.999,4.751,5.278,11.226,3.384,17.139l-66.924,209.146l183.716,108.555c5.41,3.198,8.769,8.975,8.872,15.259
					L811.19,2633.376z M811.239,1269.335h0.049H811.239z"/>
			</g>
			<g>
				<g>
					<circle style="fill:#FEDA24;" cx="1644.758" cy="1857.7" r="766.658"/>
				</g>
				<g style="opacity:0.6;">
					<path style="fill:#FFFFFF;" d="M2390.575,1679.607c-80.3-337.52-383.722-588.564-745.817-588.564
						c-423.413,0-766.658,343.244-766.658,766.658c0,79.077,11.982,155.353,34.213,227.123
						c-13.598-57.156-20.841-116.775-20.841-178.093c0-331.215,210.042-613.36,504.188-720.536
						c-0.472,2.759-0.618,5.536-0.421,8.321c3.151,44.532,92.633,74.482,199.865,66.895c107.232-7.587,191.606-49.838,188.455-94.37
						c-0.44-6.215-2.617-12.132-6.233-17.717C2068.364,1194.762,2305.173,1403.887,2390.575,1679.607z"/>
				</g>
				<g>
					<path style="fill:#FCAF27;" d="M2260.861,1401.399c13.886,57.721,21.293,117.965,21.293,179.947
						c0,423.413-343.245,766.657-766.658,766.657c-252.469,0-476.411-122.055-616.103-310.357
						c80.97,336.583,383.934,586.711,745.365,586.711c423.413,0,766.658-343.244,766.658-766.658
						C2411.416,1686.755,2355.445,1528.897,2260.861,1401.399z"/>
				</g>
				<g>
					<path style="fill:#3B0372;" d="M1644.759,2642.419c-432.7,0-784.722-352.021-784.722-784.719s352.022-784.722,784.722-784.722
						c432.695,0,784.717,352.024,784.717,784.722S2077.454,2642.419,1644.759,2642.419z M1644.759,1109.106
						c-412.778,0-748.599,335.818-748.599,748.594s335.82,748.596,748.599,748.596c412.774,0,748.594-335.82,748.594-748.596
						S2057.533,1109.106,1644.759,1109.106z"/>
				</g>
				<g>
					<g>
						<path style="fill:#3B0372;" d="M1653.699,1960.204c-1.445,0-2.891-0.032-4.336-0.095c-32.661-1.44-59.219-18.713-74.775-48.64
							c-3.726-7.158-0.938-15.976,6.221-19.7c7.148-3.716,15.972-0.94,19.697,6.223c13.516,25.984,34.726,32.248,50.146,32.93
							c27.441,1.216,56.489-14.011,71.138-36.992c8.301-13.013,15.351-33.977,1.841-59.963c-3.726-7.158-0.938-15.979,6.221-19.702
							c7.148-3.721,15.972-0.935,19.697,6.221c15.562,29.927,14.453,61.589-3.125,89.153
							C1726.888,1940.27,1690.062,1960.204,1653.699,1960.204z"/>
					</g>
					<g>
						
							<ellipse transform="matrix(0.8872 -0.4614 0.4614 0.8872 -820.1445 900.557)" style="fill:#FF8CC3;" cx="1431.829" cy="2127.713" rx="69.387" ry="41.998"/>
					</g>
					<g>
						
							<ellipse transform="matrix(0.8872 -0.4614 0.4614 0.8872 -617.8787 1131.5118)" style="fill:#FF8CC3;" cx="2005.322" cy="1829.493" rx="69.387" ry="41.998"/>
					</g>
					<g>
						<g>
							<g>
								
									<ellipse transform="matrix(0.8869 -0.4619 0.4619 0.8869 -711.5756 847.012)" style="fill:#3B0372;" cx="1374.419" cy="1877.054" rx="94.494" ry="109.122"/>
							</g>
						</g>
						<g>
							<g>
								
									<ellipse transform="matrix(0.8869 -0.4619 0.4619 0.8869 -692.2421 846.2974)" style="fill:#FFFFFF;" cx="1382.633" cy="1837.21" rx="30.809" ry="39.002"/>
							</g>
						</g>
						<g style="opacity:0.2;">
							<g>
								
									<ellipse transform="matrix(0.8869 -0.4619 0.4619 0.8869 -735.7682 845.9341)" style="fill:#FFFFFF;" cx="1360.12" cy="1925.934" rx="17.063" ry="26.395"/>
							</g>
						</g>
					</g>
					<g>
						<g>
							<g>
								
									<ellipse transform="matrix(0.8875 -0.4608 0.4608 0.8875 -550.0966 1027.708)" style="fill:#3B0372;" cx="1829.56" cy="1640.378" rx="94.494" ry="109.122"/>
							</g>
						</g>
						<g>
							<g>
								
									<ellipse transform="matrix(0.8875 -0.4608 0.4608 0.8875 -546.8544 1008.696)" style="fill:#FFFFFF;" cx="1792.224" cy="1624.22" rx="30.809" ry="39.002"/>
							</g>
						</g>
						<g style="opacity:0.2;">
							<g>
								
									<ellipse transform="matrix(0.8875 -0.4608 0.4608 0.8875 -552.2149 1051.7853)" style="fill:#FFFFFF;" cx="1877.786" cy="1656.744" rx="17.063" ry="26.395"/>
							</g>
						</g>
					</g>
				</g>
			</g>
			<g>
				<g>
					<g>
						<path style="fill:#FFFFFF;" d="M1781.974,3138.689c206.033,68.632,445.54,54.779,639.094-25.564
							c208.001,101.567,423.202,100.094,642.746,36.52c467.451,157.034,734.044-485.711,306.765-719.437
							c-53.169-287.987-259.29-427.28-511.275-394.412c-171.642-394.412-781.52-328.677-898.383,25.564
							c-230.609-67.886-456.495,105.907-463.799,339.633C1106.361,2499.595,1077.146,3259.203,1781.974,3138.689z"/>
					</g>
					<g style="opacity:0.3;">
						<path style="fill:#FFFFFF;" d="M1498.402,2419.849c19.337-216.834,227.316-375.39,444.466-323.145
							c10.213,2.457,20.562-2.968,24.349-12.766c128.974-333.7,705.85-394.009,884.299-24.937
							c4.824,9.978,15.271,15.93,26.301,14.852c243.521-23.81,440.9,115.624,492.762,396.526
							c142.67,78.042,207.96,201.686,214.262,325.931c6.885-137.212-56.202-279.642-214.262-366.103
							c-53.169-287.987-259.29-427.28-511.275-394.412c-171.642-394.412-781.52-328.677-898.383,25.564
							c-230.609-67.886-456.495,105.907-463.799,339.633c-178.906,45.145-282.002,228.845-273.586,403.202
							c7.487-154.708,100.07-307.863,253.034-357.135C1488.628,2443.174,1497.277,2432.468,1498.402,2419.849z"/>
					</g>
					<g>
						<path style="fill:#BDE1E9;" d="M3580.777,2716.356c-30.849,203.964-214.517,382.395-466.032,326.955
							c31.171-11.495,55.604-32.518,67.363-58.357c3.941-8.661,12.694-14.235,22.16-13.27c5.428,0.553,10.962,0.841,16.58,0.841
							c71.601,0,129.645-46.033,129.645-102.817c0-2.417-0.107-4.813-0.317-7.187c-0.627-7.084-9.887-9.585-13.725-3.597
							c-21.405,33.402-65.122,56.292-115.603,56.292c-50.62,0-94.438-23.016-115.779-56.567c-3.759-5.91-12.875-3.428-13.52,3.546
							c-0.229,2.48-0.346,4.985-0.346,7.512c0,38.796,27.104,72.562,67.106,90.069c-23.765,21.88-58.875,35.783-98.147,35.783
							c-49.628,0-92.718-22.123-114.498-54.607c-4.332-6.46-14.489-3.838-14.982,3.925c-0.109,1.714-0.164,3.438-0.164,5.173
							c0,33.587,20.318,63.397,51.731,82.154c7.751,4.628,5.979,16.336-2.847,18.233c-164.082,35.267-325.505,32.504-483.057-25.65
							c39.003-18.288,65.324-52.817,65.324-92.432c0-2.696-0.124-5.368-0.367-8.013c-0.64-6.97-9.779-9.391-13.435-3.421
							c-21.242,34.691-64.857,58.489-115.243,58.489c-27.039,0-52.072-6.915-72.8-18.627
							c52.303-20.333,88.634-64.959,88.634-116.781c0-5.777-0.46-11.462-1.344-17.034c-0.961-6.06-9.14-7.35-12.024-1.934
							c-23.81,44.713-76.979,75.855-138.788,75.855c-60.658,0-112.995-29.992-137.427-73.371c-3.531-6.27-12.913-4.563-13.834,2.573
							c-0.59,4.568-0.895,9.209-0.895,13.911c0,70.98,68.123,128.521,152.156,128.521c0.342,0,0.685-0.001,1.026-0.003
							c9.26-0.055,17.759,4.575,23.009,12.203c8.653,12.573,20.321,23.549,34.208,32.258
							c-127.868,41.155-270.438,55.172-407.872,38.05c-8.733-1.088-10.678-12.712-2.816-16.667
							c44.425-22.352,73.671-60.337,73.671-103.46c0-5.415-0.47-10.746-1.374-15.976c-1.131-6.544-9.766-8.184-13.178-2.486
							c-25.979,43.377-84.072,73.595-151.612,73.595c-66.79,0-124.342-29.551-150.735-72.155
							c-3.802-6.138-13.225-4.426-14.328,2.709c-0.726,4.695-1.102,9.47-1.102,14.312c0,35.368,19.697,67.268,51.278,89.942
							c-326.243,40.003-481.765-119.01-509.032-301.27c-33.541,232.462,122.74,488.942,554.531,415.112
							c206.033,68.632,445.54,54.779,639.094-25.564c208.001,101.567,423.202,100.094,642.746,36.52
							C3391.873,3259.852,3620.99,2976.146,3580.777,2716.356z"/>
					</g>
					<g>
						<path style="fill:#3B0372;" d="M2772.401,3212.155c-124.409,0.005-240.976-26.377-351.934-79.262
							c-200.483,81.016-438.696,90.137-639.902,24.351c-161.924,26.982-295.591,10.444-397.3-49.17
							c-87.744-51.436-147.91-135.801-169.419-237.563c-39.556-187.173,57.983-422.598,265.869-483.491
							c7.505-114.595,64.917-218.418,158.931-286.484c90.747-65.698,203.145-87.529,310.84-60.977
							c31.24-82.336,89.917-152.773,170.581-204.482c79.106-50.711,177.466-81.157,276.948-85.728
							c211.255-9.729,391.226,92.271,473.291,266.948c125.728-13.569,239.575,14.639,329.971,81.895
							c94.702,70.449,159.067,181.089,186.465,320.347c226.816,128.828,252.871,364.438,180.225,530.527
							c-39.766,90.918-108.193,163.662-192.681,204.834c-93.125,45.386-200.493,50.42-310.84,14.648
							C2961.537,3197.594,2864.793,3212.155,2772.401,3212.155z M2421.068,3095.065c2.715,0,5.43,0.61,7.925,1.831
							c188.389,91.982,394.399,103.55,629.795,35.4c3.53-1.025,7.29-0.942,10.776,0.225
							c227.505,76.44,397.124-44.336,464.307-197.935c67.056-153.311,41.846-371.582-171.958-488.53
							c-4.771-2.612-8.11-7.227-9.096-12.568c-49.356-267.334-237.5-412.866-491.177-379.78c-7.93,1.05-15.684-3.32-18.896-10.703
							c-87.446-200.925-286.68-264.775-444.067-257.568c-199.028,9.146-368.057,122.302-420.601,281.582
							c-3.057,9.258-12.876,14.419-22.256,11.67c-101.831-29.98-209.717-11.343-295.986,51.108
							c-88.535,64.097-141.26,163.15-144.653,271.763c-0.254,8.057-5.82,14.976-13.638,16.948
							c-196.655,49.624-289.248,269.917-252.349,444.531c36.846,174.346,178.994,270.42,389.824,270.43
							c43.794,0.005,90.518-4.141,139.912-12.583c2.935-0.513,5.938-0.273,8.755,0.664c196.611,65.493,430.791,56.108,626.46-25.107
							C2416.361,3095.524,2418.719,3095.065,2421.068,3095.065z"/>
					</g>
					<g>
						<path style="fill:#3B0372;" d="M1871.313,3181.363c-74.368-7.424-150.04-46.571-184.091-115.509
							c-3.605-8.302-8.951-20.714-11.154-29.42c37.074,47.045,87.344,78.582,144.319,94.702c18.805,5.76,38.16,10.042,57.297,14.766
							C1898.85,3151.914,1893.151,3183.135,1871.313,3181.363L1871.313,3181.363z"/>
					</g>
					<g>
						<path style="fill:#3B0372;" d="M2475.339,3156.677c-54.107-17.373-104.691-56.22-127.31-109.287
							c22.567,17.163,44.908,31.48,68.419,43.349c20.147,10.571,50.485,22.967,71.636,32.134
							C2508.922,3132.314,2497.119,3163.359,2475.339,3156.677L2475.339,3156.677z"/>
					</g>
					<g>
						<path style="fill:#3B0372;" d="M3010.354,3145.298c26.568-6.61,52.727-14.324,77.507-26.164
							c25.431-12.406,48.661-27.877,70.903-46.181c-14.73,44.246-54.174,75.984-95.791,94.153
							c-14.593,6.209-29.721,10.979-45.237,13.468C2994.971,3183.774,2988.292,3151.496,3010.354,3145.298L3010.354,3145.298z"/>
					</g>
					<g>
						<path style="fill:#3B0372;" d="M3377.456,2399.175c6.655,41.672,4.426,84.613-3.225,125.984
							c-6.443-30.53-12.806-60.748-19.996-90.903c-2.088-10.241-4.35-20.429-5.646-30.831
							C3346.58,2384.588,3373.939,2380.566,3377.456,2399.175L3377.456,2399.175z"/>
					</g>
					<g>
						<path style="fill:#3B0372;" d="M2404.637,2600.5c-49.004,0-98.608-31.523-98.608-91.772c0-8.066,6.543-14.609,14.609-14.609
							s14.609,6.543,14.609,14.609c0,42.979,35.967,62.559,69.39,62.559c33.418,0,69.385-19.58,69.385-62.559
							c0-8.066,6.543-14.609,14.609-14.609s14.609,6.543,14.609,14.609C2503.24,2568.976,2453.636,2600.5,2404.637,2600.5z"/>
					</g>
					<g>
						<ellipse style="fill:#FF8CC3;" cx="2079.609" cy="2634.718" rx="69.387" ry="41.998"/>
					</g>
					<g>
						<ellipse style="fill:#FF8CC3;" cx="2726.007" cy="2634.718" rx="69.387" ry="41.998"/>
					</g>
				</g>
				<g>
					<g>
						<g>
							<ellipse style="fill:#3B0372;" cx="2144.317" cy="2385.843" rx="94.494" ry="109.122"/>
						</g>
					</g>
					<g>
						<g>
							<ellipse style="fill:#FFFFFF;" cx="2169.988" cy="2354.283" rx="30.809" ry="39.002"/>
						</g>
					</g>
					<g style="opacity:0.2;">
						<g>
							<ellipse style="fill:#FFFFFF;" cx="2109.081" cy="2422.613" rx="17.063" ry="26.395"/>
						</g>
					</g>
				</g>
				<g>
					<g>
						<g>
							<ellipse style="fill:#3B0372;" cx="2657.318" cy="2385.843" rx="94.494" ry="109.122"/>
						</g>
					</g>
					<g>
						<g>
							<ellipse style="fill:#FFFFFF;" cx="2631.647" cy="2354.283" rx="30.809" ry="39.002"/>
						</g>
					</g>
					<g style="opacity:0.2;">
						<g>
							<ellipse style="fill:#FFFFFF;" cx="2692.554" cy="2422.613" rx="17.063" ry="26.395"/>
						</g>
					</g>
				</g>
			</g>
		</g>
		<g>
			<path style="fill:#3B0372;" d="M2772.396,3230.221c-104.912,0-206.65-18.94-302.407-56.294
				c-13.027-4.194-25.713-9.497-38.052-15.869c-4.023-1.797-8.047-3.623-12.061-5.483
				c-170.249,66.992-370.513,84.033-550.977,46.699c-28.935-2.983-56.772-10.181-83.047-21.436l-1.807-0.556
				c-1.616-0.498-3.227-1.001-4.839-1.504c-164.312,26.68-300.562,9.146-405.078-52.124
				c-89.629-52.534-151.855-137.72-175.981-240.552l-33.081,21.255c-8.354,5.371-18.765,7.09-28.413,4.624
				c-9.648-2.437-17.949-8.848-22.764-17.578l-110.264-200.122l-210.908-4.058c-19.551-0.376-35.117-15.986-35.43-35.542
				l-4.131-256.123l-178.706-105.596c-14.614-8.647-21.201-25.967-16.025-42.124l65.234-203.848l-129.785-154.106
				c-9.292-11.04-11.128-26.514-4.678-39.424l113.262-226.523l-79.058-208.052c-6.475-17.048,0.806-36.309,16.943-44.8
				l235.913-124.17l12.28-229.126c1.025-19.172,16.865-34.194,36.069-34.194c0.103,0,0.518,0.005,0.62,0.005l238.652,4.048
				l92.993-218.315c7.773-18.252,28.97-26.846,47.261-19.138l234.731,98.833l192.832-147.71c13.647-10.437,32.91-9.8,45.815,1.538
				l166.982,146.621l252.065-86.777c17.593-6.06,36.772,2.129,44.575,19.05l95.01,206.553l205.317,45.169
				c15.669,3.447,27.026,16.514,28.252,32.512l16.406,213.174l206.86,124.121c15.288,9.168,21.577,27.837,14.961,44.39
				l-71.533,178.821l130.771,134.731c12.9,13.298,13.687,34.055,1.826,48.286l-21.548,25.859
				c56.602,43.396,101.455,97.69,133.599,161.736c125.278-10.842,239.121,18.984,330,86.597
				c96.411,71.723,162.607,183.379,191.768,323.276c229.976,135.273,255.313,378.726,180.688,549.326
				c-41.479,94.844-112.979,170.786-201.313,213.838c-95.859,46.704-206.074,52.647-319.072,17.261
				c-3.452,0.962-6.9,1.909-10.347,2.847c-10.161,3.438-20.166,6.03-29.765,7.71
				C2936.253,3219.362,2851.932,3230.217,2772.396,3230.221z M2480.184,3139.26c0.22,0.054,0.43,0.112,0.63,0.176
				c0.474,0.142,0.938,0.298,1.396,0.479c93.115,36.46,188.037,54.185,290.186,54.185c76.812-0.005,158.423-10.562,242.578-31.367
				c0.425-0.107,0.859-0.195,1.289-0.269c8.203-1.406,16.509-3.56,25.405-6.597c0.361-0.122,0.732-0.234,1.099-0.337
				c5.234-1.421,10.469-2.862,15.732-4.36c3.438-0.981,7.1-0.913,10.518,0.19c105.767,34.292,208.599,29.546,297.354-13.696
				c80.635-39.297,145.996-108.848,184.048-195.835c69.106-157.998,44.57-384.233-172.602-507.583
				c-4.575-2.598-7.788-7.061-8.804-12.222c-26.504-134.722-88.579-241.689-179.517-309.341
				c-86.514-64.37-196.23-91.465-317.256-78.428c-7.705,0.781-15.01-3.301-18.286-10.278
				c-32.544-69.27-80.679-126.689-143.062-170.667c-4.126-2.905-6.846-7.402-7.505-12.402s0.806-10.049,4.033-13.923l33.833-40.603
				l-138.931-143.14c-4.961-5.115-6.455-12.671-3.809-19.29l75.884-189.697l-214.863-128.921c-5.02-3.01-8.267-8.267-8.716-14.102
				l-17.119-222.478l-214.092-47.1c-5.527-1.216-10.166-4.951-12.529-10.093l-98.76-214.702l-261.982,90.19
				c-6.118,2.114-12.92,0.774-17.798-3.506L1653.67,729.999l-201.162,154.087c-5.151,3.943-12.012,4.824-17.998,2.307
				l-244.399-102.905l-97.759,229.504c-2.837,6.67-9.385,10.986-16.611,10.986c-0.108,0-0.21-0.003-0.313-0.003l-250.816-4.253
				l-12.827,239.368c-0.342,6.35-3.994,12.056-9.624,15.017l-244.99,128.945l81.875,215.459c1.797,4.722,1.528,9.978-0.728,14.495
				l-116.807,233.606l136.211,161.743c3.999,4.751,5.278,11.226,3.384,17.139l-68.276,213.364l187.412,110.742
				c5.41,3.198,8.77,8.974,8.872,15.259l4.297,266.24l221.343,4.258c6.46,0.127,12.358,3.687,15.474,9.346l115.308,209.268
				l55.381-35.591c5.122-3.281,11.548-3.774,17.1-1.313c5.557,2.471,9.497,7.568,10.488,13.564
				c0.928,5.63,1.943,11.064,3.018,16.152c20.435,96.714,77.573,176.875,160.879,225.708
				c97.939,57.402,227.534,73.193,385.195,46.938c2.876-0.488,5.806-0.254,8.574,0.645c2.832,0.928,5.684,1.807,8.535,2.686
				l2.759,0.854c0.615,0.19,1.221,0.415,1.812,0.669c22.861,9.887,48.14,16.465,73.149,19.038c0.918,0.049,1.831,0.166,2.734,0.352
				c176.543,36.763,372.827,19.434,538.54-47.529c4.692-1.899,9.966-1.733,14.536,0.439c6.279,2.993,12.593,5.879,18.911,8.701
				c0.322,0.146,0.645,0.298,0.962,0.464C2458.631,3131.213,2469.417,3135.759,2480.184,3139.26z"/>
		</g>
	</g>
</g>
</svg>
